<mxfile host="app.diagrams.net" modified="2020-10-03T06:41:49.144Z" agent="5.0 (Windows NT 10.0; Win64; x64) AppleWebKit/537.36 (KHTML, like Gecko) Chrome/83.0.4103.106 Whale/2.8.107.16 Safari/537.36" etag="_s5TK49-bhDRRPkXT2a_" version="13.7.7" type="github">
  <diagram id="C5RBs43oDa-KdzZeNtuy" name="Page-1">
    <mxGraphModel dx="723" dy="494" grid="1" gridSize="10" guides="1" tooltips="1" connect="1" arrows="1" fold="1" page="1" pageScale="1" pageWidth="827" pageHeight="1169" math="0" shadow="0">
      <root>
        <mxCell id="WIyWlLk6GJQsqaUBKTNV-0" />
        <mxCell id="WIyWlLk6GJQsqaUBKTNV-1" parent="WIyWlLk6GJQsqaUBKTNV-0" />
        <mxCell id="3jWn5hUb5BIXrc-9sVpe-0" value="&lt;font face=&quot;검은고딕&quot; data-font-src=&quot;&amp;lt;link href=&amp;#34;https://fonts.googleapis.com/css?family=Black+Han+Sans&amp;amp;display=swap&amp;amp;subset=korean&amp;#34; rel=&amp;#34;stylesheet&amp;#34;&amp;gt; @import url(&#39;https://fonts.googleapis.com/css?family=Black+Han+Sans:400&#39;); @import url(&#39;https://fonts.googleapis.com/css?family=Black+Han+Sans&amp;amp;display=swap&amp;amp;subset=korean&#39;); font-family: &#39;Black Han Sans&#39;, sans-serif;&quot;&gt;This program is co-routine based.&lt;/font&gt;" style="text;html=1;strokeColor=#d6b656;fillColor=#fff2cc;align=center;verticalAlign=middle;whiteSpace=wrap;rounded=0;fontFamily=Lucida Console;fontSize=16;" vertex="1" parent="WIyWlLk6GJQsqaUBKTNV-1">
          <mxGeometry width="310" height="40" as="geometry" />
        </mxCell>
        <mxCell id="3jWn5hUb5BIXrc-9sVpe-14" value="" style="edgeStyle=none;rounded=0;sketch=0;jumpStyle=none;jumpSize=7;orthogonalLoop=1;jettySize=auto;html=1;shadow=0;startArrow=none;startFill=0;strokeColor=#000000;fontFamily=Lucida Console;fontSize=16;" edge="1" parent="WIyWlLk6GJQsqaUBKTNV-1" source="3jWn5hUb5BIXrc-9sVpe-5" target="3jWn5hUb5BIXrc-9sVpe-13">
          <mxGeometry relative="1" as="geometry" />
        </mxCell>
        <mxCell id="3jWn5hUb5BIXrc-9sVpe-5" value="&lt;font data-font-src=&quot;&amp;lt;link href=&amp;#34;https://fonts.googleapis.com/css?family=Black+Han+Sans&amp;amp;display=swap&amp;amp;subset=korean&amp;#34; rel=&amp;#34;stylesheet&amp;#34;&amp;gt; @import url(&#39;https://fonts.googleapis.com/css?family=Black+Han+Sans:400&#39;); @import url(&#39;https://fonts.googleapis.com/css?family=Black+Han+Sans&amp;amp;display=swap&amp;amp;subset=korean&#39;); font-family: &#39;Black Han Sans&#39;, sans-serif;&quot; face=&quot;Courier New&quot;&gt;!play&lt;/font&gt;&lt;font face=&quot;검은고딕&quot; data-font-src=&quot;&amp;lt;link href=&amp;#34;https://fonts.googleapis.com/css?family=Black+Han+Sans&amp;amp;display=swap&amp;amp;subset=korean&amp;#34; rel=&amp;#34;stylesheet&amp;#34;&amp;gt; @import url(&#39;https://fonts.googleapis.com/css?family=Black+Han+Sans:400&#39;); @import url(&#39;https://fonts.googleapis.com/css?family=Black+Han+Sans&amp;amp;display=swap&amp;amp;subset=korean&#39;); font-family: &#39;Black Han Sans&#39;, sans-serif;&quot;&gt;&amp;nbsp;called&lt;/font&gt;" style="rounded=1;whiteSpace=wrap;html=1;fontFamily=Lucida Console;fontSize=16;" vertex="1" parent="WIyWlLk6GJQsqaUBKTNV-1">
          <mxGeometry x="294" y="80" width="240" height="60" as="geometry" />
        </mxCell>
        <mxCell id="3jWn5hUb5BIXrc-9sVpe-17" value="" style="edgeStyle=none;rounded=0;sketch=0;jumpStyle=none;jumpSize=7;orthogonalLoop=1;jettySize=auto;html=1;shadow=0;startArrow=none;startFill=0;strokeColor=#000000;fontFamily=Lucida Console;fontSize=16;" edge="1" parent="WIyWlLk6GJQsqaUBKTNV-1" source="3jWn5hUb5BIXrc-9sVpe-6" target="3jWn5hUb5BIXrc-9sVpe-16">
          <mxGeometry relative="1" as="geometry" />
        </mxCell>
        <mxCell id="3jWn5hUb5BIXrc-9sVpe-6" value="&lt;font face=&quot;Helvetica&quot;&gt;execute &lt;/font&gt;&lt;font face=&quot;Courier New&quot;&gt;play()&lt;/font&gt;&lt;font face=&quot;Helvetica&quot;&gt;&amp;nbsp;func&lt;/font&gt;" style="rounded=0;whiteSpace=wrap;html=1;fontFamily=Lucida Console;fontSize=16;" vertex="1" parent="WIyWlLk6GJQsqaUBKTNV-1">
          <mxGeometry x="304" y="330" width="220" height="60" as="geometry" />
        </mxCell>
        <mxCell id="3jWn5hUb5BIXrc-9sVpe-9" value="ctx,(name)" style="shape=parallelogram;perimeter=parallelogramPerimeter;whiteSpace=wrap;html=1;fixedSize=1;fontFamily=Lucida Console;fontSize=16;" vertex="1" parent="WIyWlLk6GJQsqaUBKTNV-1">
          <mxGeometry x="479" y="266" width="130" height="30" as="geometry" />
        </mxCell>
        <mxCell id="3jWn5hUb5BIXrc-9sVpe-12" value="" style="endArrow=none;html=1;fontFamily=Lucida Console;fontSize=16;jumpSize=7;jumpStyle=none;startArrow=none;startFill=0;shadow=0;sketch=0;" edge="1" parent="WIyWlLk6GJQsqaUBKTNV-1">
          <mxGeometry width="50" height="50" relative="1" as="geometry">
            <mxPoint x="414" y="280" as="sourcePoint" />
            <mxPoint x="490" y="280" as="targetPoint" />
          </mxGeometry>
        </mxCell>
        <mxCell id="3jWn5hUb5BIXrc-9sVpe-15" value="" style="edgeStyle=none;rounded=0;sketch=0;jumpStyle=none;jumpSize=7;orthogonalLoop=1;jettySize=auto;html=1;shadow=0;startArrow=none;startFill=0;strokeColor=#000000;fontFamily=Lucida Console;fontSize=16;" edge="1" parent="WIyWlLk6GJQsqaUBKTNV-1" source="3jWn5hUb5BIXrc-9sVpe-13" target="3jWn5hUb5BIXrc-9sVpe-6">
          <mxGeometry relative="1" as="geometry" />
        </mxCell>
        <mxCell id="3jWn5hUb5BIXrc-9sVpe-13" value="&lt;font face=&quot;Helvetica&quot;&gt;global &lt;/font&gt;&lt;font face=&quot;Courier New&quot;&gt;queue&lt;/font&gt;" style="shape=hexagon;perimeter=hexagonPerimeter2;whiteSpace=wrap;html=1;fixedSize=1;fontFamily=Lucida Console;fontSize=16;" vertex="1" parent="WIyWlLk6GJQsqaUBKTNV-1">
          <mxGeometry x="334" y="190" width="160" height="50" as="geometry" />
        </mxCell>
        <mxCell id="3jWn5hUb5BIXrc-9sVpe-18" style="edgeStyle=none;rounded=0;sketch=0;jumpStyle=none;jumpSize=7;orthogonalLoop=1;jettySize=auto;html=1;exitX=1;exitY=0.5;exitDx=0;exitDy=0;entryX=1;entryY=0.5;entryDx=0;entryDy=0;shadow=0;startArrow=none;startFill=0;strokeColor=#000000;fontFamily=Lucida Console;fontSize=16;" edge="1" parent="WIyWlLk6GJQsqaUBKTNV-1" source="3jWn5hUb5BIXrc-9sVpe-16" target="3jWn5hUb5BIXrc-9sVpe-5">
          <mxGeometry relative="1" as="geometry">
            <Array as="points">
              <mxPoint x="680" y="460" />
              <mxPoint x="680" y="110" />
            </Array>
          </mxGeometry>
        </mxCell>
        <mxCell id="3jWn5hUb5BIXrc-9sVpe-26" value="" style="edgeStyle=none;rounded=0;sketch=0;jumpStyle=none;jumpSize=7;orthogonalLoop=1;jettySize=auto;html=1;shadow=0;startArrow=none;startFill=0;strokeColor=#000000;fontFamily=Lucida Console;fontSize=16;" edge="1" parent="WIyWlLk6GJQsqaUBKTNV-1" source="3jWn5hUb5BIXrc-9sVpe-16" target="3jWn5hUb5BIXrc-9sVpe-25">
          <mxGeometry relative="1" as="geometry" />
        </mxCell>
        <mxCell id="3jWn5hUb5BIXrc-9sVpe-16" value="queue = 0" style="rhombus;whiteSpace=wrap;html=1;fontFamily=Lucida Console;fontSize=16;" vertex="1" parent="WIyWlLk6GJQsqaUBKTNV-1">
          <mxGeometry x="314" y="420" width="200" height="80" as="geometry" />
        </mxCell>
        <mxCell id="3jWn5hUb5BIXrc-9sVpe-19" value="no" style="text;html=1;strokeColor=none;fillColor=none;align=center;verticalAlign=middle;whiteSpace=wrap;rounded=0;fontFamily=Lucida Console;fontSize=16;" vertex="1" parent="WIyWlLk6GJQsqaUBKTNV-1">
          <mxGeometry x="510" y="440" width="40" height="20" as="geometry" />
        </mxCell>
        <mxCell id="3jWn5hUb5BIXrc-9sVpe-20" value="" style="endArrow=classic;html=1;shadow=0;strokeColor=#000000;fontFamily=Lucida Console;fontSize=16;" edge="1" parent="WIyWlLk6GJQsqaUBKTNV-1">
          <mxGeometry width="50" height="50" relative="1" as="geometry">
            <mxPoint x="680" y="280.76" as="sourcePoint" />
            <mxPoint x="600" y="280.76" as="targetPoint" />
          </mxGeometry>
        </mxCell>
        <mxCell id="3jWn5hUb5BIXrc-9sVpe-21" value="ctx" style="text;html=1;strokeColor=none;fillColor=none;align=center;verticalAlign=middle;whiteSpace=wrap;rounded=0;fontFamily=Lucida Console;fontSize=16;" vertex="1" parent="WIyWlLk6GJQsqaUBKTNV-1">
          <mxGeometry x="620" y="290" width="40" height="20" as="geometry" />
        </mxCell>
        <mxCell id="3jWn5hUb5BIXrc-9sVpe-31" value="" style="edgeStyle=none;rounded=0;sketch=0;jumpStyle=none;jumpSize=7;orthogonalLoop=1;jettySize=auto;html=1;shadow=0;startArrow=none;startFill=0;strokeColor=#000000;fontFamily=Lucida Console;fontSize=16;" edge="1" parent="WIyWlLk6GJQsqaUBKTNV-1" source="3jWn5hUb5BIXrc-9sVpe-25" target="3jWn5hUb5BIXrc-9sVpe-30">
          <mxGeometry relative="1" as="geometry" />
        </mxCell>
        <mxCell id="3jWn5hUb5BIXrc-9sVpe-25" value="&lt;font face=&quot;Helvetica&quot;&gt;broadcast done&lt;/font&gt;" style="rounded=0;whiteSpace=wrap;html=1;fontFamily=Lucida Console;fontSize=16;" vertex="1" parent="WIyWlLk6GJQsqaUBKTNV-1">
          <mxGeometry x="304" y="530" width="220" height="60" as="geometry" />
        </mxCell>
        <mxCell id="3jWn5hUb5BIXrc-9sVpe-30" value="return" style="rounded=1;whiteSpace=wrap;html=1;fontFamily=Lucida Console;fontSize=16;" vertex="1" parent="WIyWlLk6GJQsqaUBKTNV-1">
          <mxGeometry x="300" y="620" width="230" height="60" as="geometry" />
        </mxCell>
        <mxCell id="3jWn5hUb5BIXrc-9sVpe-32" value="yes" style="text;html=1;strokeColor=none;fillColor=none;align=center;verticalAlign=middle;whiteSpace=wrap;rounded=0;fontFamily=Lucida Console;fontSize=16;" vertex="1" parent="WIyWlLk6GJQsqaUBKTNV-1">
          <mxGeometry x="420" y="500" width="40" height="20" as="geometry" />
        </mxCell>
      </root>
    </mxGraphModel>
  </diagram>
</mxfile>
